<?xml version="1.0" encoding="utf-8"?>
<!-- Svg Vector Icons : http://www.onlinewebfonts.com/icon -->
<!DOCTYPE svg PUBLIC "-//W3C//DTD SVG 1.1//EN" "http://www.w3.org/Graphics/SVG/1.1/DTD/svg11.dtd">
<svg version="1.1" xmlns="http://www.w3.org/2000/svg" xmlns:xlink="http://www.w3.org/1999/xlink" viewBox="0 0 256 256" enable-background="new 0 0 256 256" xml:space="preserve">
<metadata> Svg Vector Icons : http://www.onlinewebfonts.com/icon </metadata>
<g><g><g><path fill="#888888" d="M28.7,10.8c-6.2,1.5-12.9,6.7-15.9,12.4c-3,5.7-2.9,3.5-2.9,60.6c0,57-0.1,54.7,2.8,60.5c1.8,3.6,6.6,8.4,10.4,10.4c5.3,2.8,6,2.9,35.1,2.9c18.2,0,26.7-0.1,27.4-0.5c0.6-0.3,1.5-1.1,2-1.7l1.1-1.2v6c0,9.2,1.6,13.7,6.7,19.1l3,3.1v2.9c0,3.5,0.9,5.4,3.1,6.3c1.2,0.6,1.9,0.6,3.2,0.2c1.8-0.6,3.4-2.4,3.4-3.9c0-1,0-1,13.7-0.8c8.8,0.1,15.3,0,18.1-0.4c23.6-3,42.5-21.2,46.3-44.7c1.7-10.5,0.1-20.9-4.6-31.1c-1.5-3.3-1.5-3.3-0.7-4.4c1.7-2.2,0.7-6.1-1.7-7.2c-0.6-0.3-2.1-0.6-3.2-0.6c-2,0-2,0-10.3-8.4l-8.3-8.4V56.8c0-20.6-0.1-25.4-0.7-27.8c-2.1-8.8-9.5-16.2-18.3-18.3C134.3,9.7,32.9,9.7,28.7,10.8z M136.4,20.4c4.7,1.2,7.7,3.7,9.9,8.3c1.2,2.7,1.3,3,1.4,11.6l0.2,8.9H83.8H19.6l0.2-8.9c0.1-8.4,0.2-9,1.3-11.4c2.2-4.6,5.3-7.3,10-8.6c1.6-0.5,14.1-0.6,52.4-0.6C126.6,19.7,134.2,19.8,136.4,20.4z M147.8,67.6v8.3h-2.8c-4.1,0-7.5,1.5-10.6,4.6c-1.4,1.4-2.9,3.4-3.2,4.3c-0.6,1.6-0.8,1.7-1.8,1.4c-2.4-0.6-7.6-0.3-9.9,0.7c-4,1.8-7.1,5.1-8.4,8.9l-0.7,2.2h-2.4c-5,0-10.3,3.2-13,7.7c-0.6,1.1-1.4,3.5-1.8,5.3l-0.6,3.3l-2.1,0.6c-4.5,1.3-8.9,5.6-10.1,10c-0.3,1.1-0.6,3.3-0.5,5c0,4.4,1.7,7.7,5.7,11.8l3.2,3.1v3.2v3.2l-1.3-1.6l-1.3-1.6l-27.3-0.2l-27.4-0.2l-2.8-1.3c-3.1-1.5-4.9-2.9-6.5-5.5c-2.5-3.8-2.5-3.9-2.5-44.2V59.3h64.1h64.1V67.6z M147.7,86.3c1.9,1,19,18.5,21.4,21.9c6.2,8.8,8.9,19.5,7.7,29.8c-2.5,20.7-18,36.4-38.5,38.9c-5.4,0.6-24.8,0.6-28,0c-4.6-1-8.7-4.2-10.6-8.5c-0.8-1.9-1.1-3.3-1.2-8.1l-0.2-5.8l6.4,6.3c6.1,6,6.5,6.4,8.3,6.4c3.4,0,5.9-3.3,4.7-6.3c-0.3-0.7-6.7-7.6-14.3-15.2l-13.8-13.9v-2.1c0-3.6,3.2-6.2,6.7-5.5c0.9,0.2,3.5,2.4,8.1,6.9c6.4,6.3,6.9,6.6,8.6,6.6c3.4,0,5.9-3.3,4.7-6.3c-0.3-0.7-3.7-4.6-7.6-8.5c-7.8-7.9-8.4-8.8-6.9-11.9c1.1-2.3,3.5-3.5,5.9-3.1c1.4,0.3,2.7,1.2,6.7,5.1c2.7,2.6,5.4,4.9,6.1,5.1c1.7,0.4,4.3-0.8,5.2-2.5c1.5-2.9,1-4-3.7-8.8c-3.2-3.3-3.4-3.6-3.4-5.6c0-2.4,1.2-4.3,3.5-5.2c2.6-1.1,4.1-0.4,8.2,3.5c2,2,4.2,3.7,4.9,3.9c1.8,0.4,4.4-0.8,5.2-2.5c1.1-2,0.9-3.3-0.6-5.6c-1.8-2.7-2.1-4.1-1.2-6.1C141.4,86.2,145,84.8,147.7,86.3z"/><path fill="#888888" d="M31.2,31.2c-1.1,1.1-1.3,1.8-1.3,3.4c0,4.6,4.9,6.6,8.1,3.4c3.2-3.2,1.2-8.1-3.4-8.1C32.9,29.8,32.3,30.1,31.2,31.2z"/><path fill="#888888" d="M51.1,31c-1.8,1.5-2.2,3.3-1.3,5.4c0.7,1.8,2.7,3.1,4.5,3.1c1.8,0,3.9-1.6,4.5-3.5C60.4,31.5,54.8,27.9,51.1,31z"/><path fill="#888888" d="M71,30.7c-2.5,2-2.7,5-0.5,7.3c1.8,1.8,3.7,2.1,5.8,0.8c4.2-2.4,2.4-8.9-2.4-8.9C72.8,29.8,71.6,30.2,71,30.7z"/><path fill="#888888" d="M193.2,100.1c-1.8,1.8-2,3.5-0.9,5.8c1.1,2,2.5,2.4,9.5,2.4h6.5l1.3-1.3c1.5-1.5,1.8-3.8,0.7-6c-1.1-2-2.5-2.4-9.3-2.4h-6.3L193.2,100.1z"/><path fill="#888888" d="M222.3,100.5c-2.9,2.9-1.9,6.5,2.3,8.1c1.4,0.6,2.7,1,2.8,1c0.1,0,1.3,0.7,2.7,1.6c3,2,5.5,2.2,7.3,0.5c2.4-2.2,2.2-5-0.5-7.6c-2.2-2.1-7.6-4.6-10.6-5C224,98.9,223.8,98.9,222.3,100.5z"/><path fill="#888888" d="M237.7,122l-1.3,1.3v6.5c0,3.8,0.2,6.9,0.5,7.6c1.3,2.8,5.6,3.3,7.8,0.9c1-1.1,1.1-1.6,1.2-7.2c0.1-3.3,0-6.5-0.1-7.1C244.9,120.6,240.2,119.4,237.7,122z"/><path fill="#888888" d="M237.7,151l-1.3,1.3v6.5c0,3.8,0.2,6.9,0.5,7.6c1.3,2.8,5.6,3.3,7.8,0.9c1-1.1,1.1-1.6,1.2-7.2c0.1-3.3,0-6.5-0.1-7.1C244.9,149.6,240.2,148.5,237.7,151z"/><path fill="#888888" d="M237.7,180.1l-1.3,1.3v6.5c0,7.1,0.4,8.5,2.4,9.5c2,1,3.9,0.8,5.6-0.7l1.5-1.3l0.1-6.1c0.1-3.4,0-6.6-0.1-7.2C244.9,178.7,240.2,177.5,237.7,180.1z"/><path fill="#888888" d="M100.9,202.4c-2,1.1-2.3,2.4-2.3,9.2v6.4l1.6,1.6c1.8,1.8,3.5,2,5.8,0.9c2-1.1,2.4-2.5,2.4-9.5v-6.5l-1.3-1.3C105.3,201.6,102.8,201.3,100.9,202.4z"/><path fill="#888888" d="M237.7,209.1c-1.3,1.3-1.3,1.4-1.3,7.1v5.8h3.1c1.7,0,3.9-0.1,4.8-0.3l1.7-0.3v-5c0-2.8-0.2-5.5-0.5-6c-0.9-1.8-2.4-2.6-4.5-2.6C239.4,207.8,238.8,208,237.7,209.1z"/><path fill="#888888" d="M105.9,230.2c-1.8,1.3-2.3,2.1-2.3,4.3c0,1.9,0.2,2.2,2.7,4.7c3.1,3,7.6,5.5,10,5.5c1.3,0,2-0.4,3.2-1.6c2.9-2.9,1.8-6.1-2.7-8.4c-1.3-0.6-3.3-2-4.3-3C110.2,229.4,107.7,228.9,105.9,230.2z"/><path fill="#888888" d="M229.9,233.8c-0.9,0.4-2.4,0.9-3.2,1.3c-0.9,0.4-2.6,0.8-3.8,1c-2.6,0.4-4.7,2-5.2,3.9c-0.5,2,0.8,4.5,2.8,5.4c1.4,0.7,2,0.7,5,0.2c4.1-0.7,9.6-3.3,10.5-4.9c1.1-2,0.7-4.3-0.8-5.8C233.5,233.3,231.9,233,229.9,233.8z"/><path fill="#888888" d="M132.2,237.5c-1.8,1.5-2.2,3.3-1.3,5.4c1.1,2.6,2.5,3.1,9.3,3.1s8.2-0.5,9.3-3.1c0.9-2.1,0.5-4-1.3-5.4c-1.3-1.1-1.6-1.2-8-1.2S133.6,236.4,132.2,237.5z"/><path fill="#888888" d="M161.3,237.5c-1.7,1.4-2.2,3.5-1.3,5.5c1.1,2.5,2.6,3,9.3,3c6.7,0,8.2-0.5,9.3-3.1c0.9-2.1,0.5-4-1.3-5.4c-1.3-1.1-1.6-1.2-8-1.2C162.9,236.3,162.6,236.4,161.3,237.5z"/><path fill="#888888" d="M190.5,237.3c-1.8,1.4-2.4,3.7-1.5,5.7c1.1,2.6,2.5,3.1,9.3,3.1s8.2-0.5,9.3-3.1c0.9-2.1,0.5-4-1.3-5.4c-1.3-1.1-1.6-1.2-7.9-1.2C192.4,236.3,191.6,236.4,190.5,237.3z"/></g></g></g>
</svg>