<svg width="64" height="64" xmlns="http://www.w3.org/2000/svg" xmlns:xlink="http://www.w3.org/1999/xlink">
 <g>
  <title>background</title>
  <rect fill="none" id="canvas_background" height="402" width="582" y="-1" x="-1"/>
 </g>
 <g>
  <title stroke="#20293a">Layer 1</title>
  <defs stroke="#20293a">
   <rect y="3.625" x="3.625" width="56.75" id="SVGID_1_" height="56.75"/>
  </defs>
  <clipPath stroke="#20293a" id="SVGID_2_">
   <use id="svg_2" xlink:href="#SVGID_1_"/>
  </clipPath>
  <defs stroke="#20293a">
   <rect y="3.625" x="3.625" width="56.75" id="SVGID_3_" height="56.75"/>
  </defs>
  <clipPath stroke="#20293a" id="SVGID_4_">
   <use id="svg_4" xlink:href="#SVGID_3_"/>
  </clipPath>
  <path stroke="#20293a" id="svg_5" fill="#20293a" d="m58.146,32.113314c0,14.44 -11.706,26.146 -26.146,26.146s-26.146,-11.706 -26.146,-26.146c0,-14.44 11.706,-26.147 26.146,-26.147s26.146,11.707 26.146,26.147" clip-path="url(#SVGID_4_)"/>
  <path id="svg_6" stroke-miterlimit="10" stroke-linejoin="round" stroke-linecap="round" stroke="#20293a" fill="#20293a" d="m52.084,12.783314c4.824,5.011 7.791,11.824 7.791,19.33c0,15.395 -12.48,27.875 -27.875,27.875s-27.875,-12.48 -27.875,-27.875c0,-15.395 12.48,-27.875 27.875,-27.875c3.404,0 6.668,0.61 9.685,1.728" clip-path="url(#SVGID_4_)"/>
  <path id="svg_7" stroke-miterlimit="10" stroke-linejoin="round" stroke-linecap="round" stroke="#20293a" fill="none" d="m45.501,7.720314c1.157,0.642 2.264,1.364 3.313,2.158" clip-path="url(#SVGID_4_)"/>
  <defs stroke="#20293a" opacity="0.06">
   <rect y="9.25" x="9.25" width="45.5" id="SVGID_5_" height="45.5"/>
  </defs>
  <clipPath stroke="#20293a" opacity="0.06" id="SVGID_6_">
   <use id="svg_10" xlink:href="#SVGID_5_"/>
  </clipPath>
  <path fill="#8290ad" stroke="#20293a" opacity="0.06" id="svg_11" d="m54.636686,32.113314c0,12.564 -10.186,22.75 -22.75,22.75s-22.75,-10.186 -22.75,-22.75c0,-12.564 10.186,-22.75 22.75,-22.75s22.75,10.186 22.75,22.75" clip-path="url(#SVGID_6_)"/>
  <defs stroke="#20293a" opacity="0.04">
   <rect y="14.542" x="14.541" width="34.917" id="SVGID_7_" height="34.917"/>
  </defs>
  <clipPath stroke="#20293a" opacity="0.04" id="SVGID_8_">
   <use id="svg_14" xlink:href="#SVGID_7_"/>
  </clipPath>
  <path fill="#697896" stroke="#20293a" opacity="0.04" id="svg_15" d="m49.118058,32.339942c0,9.642 -7.816,17.458 -17.458,17.458c-9.643,0 -17.459,-7.816 -17.459,-17.458c0,-9.642 7.816,-17.458 17.459,-17.458c9.642,0 17.458,7.816 17.458,17.458" clip-path="url(#SVGID_8_)"/>
  <path fill="#20293a" stroke="#20293a" opacity="0.2" id="svg_18" fill-rule="evenodd" d="m32.52,22.926314c3.695,0 7.39,-0.002 11.085,0.001c1.146,0 2.035,0.723 2.244,1.817c0.028,0.154 0.03,0.315 0.03,0.472c0.004,4.924 0.004,9.846 0.003,14.771c0,0.178 0,0.357 -0.025,0.533c-0.156,1.086 -0.728,1.588 -1.972,1.713c-0.414,0.041 -0.831,0.063 -1.246,0.063c-7.053,0.005 -14.105,0.004 -21.159,0.003c-1.445,0 -2.361,-0.91 -2.362,-2.351c0,-4.884 0,-9.767 0.001,-14.65c0,-1.457 0.916,-2.372 2.375,-2.373c3.675,0.001 7.35,0.001 11.026,0.001zm-0.056,7.607c3.189,-2.35 6.353,-4.679 9.573,-7.052c-6.396,0 -12.696,0 -19.084,0c3.209,2.379 6.352,4.711 9.511,7.052zm-0.466,4.877c-3.025,2.104 -6.037,4.198 -9.098,6.326c6.402,0 12.736,0 19.133,0c-0.95,-0.66 -1.843,-1.281 -2.737,-1.903c-2.049,-1.425 -4.097,-2.85 -6.15,-4.271c-0.089,-0.062 -0.256,-0.117 -0.329,-0.076c-0.299,0.17 -0.563,0.162 -0.819,-0.076zm1.408,-0.327c2.971,2.066 5.912,4.111 8.883,6.176c0,-4.124 0,-8.181 0,-12.292c-2.973,2.047 -5.911,4.07 -8.883,6.116zm-1.88,0c-2.974,-2.047 -5.911,-4.07 -8.872,-6.109c0,4.111 0,8.176 0,12.28c2.966,-2.064 5.897,-4.101 8.872,-6.171z" clip-rule="evenodd"/>
  <path stroke="#20293a" id="svg_21" fill-rule="evenodd" fill="#FFFFFF" d="m32.359941,23.106198c3.695,0 7.39,-0.002 11.085,0.001c1.146,0 2.035,0.723 2.244,1.817c0.028,0.154 0.03,0.315 0.03,0.472c0.004,4.924 0.004,9.846 0.003,14.771c0,0.178 0,0.357 -0.025,0.533c-0.156,1.086 -0.728,1.588 -1.972,1.713c-0.414,0.041 -0.831,0.063 -1.246,0.063c-7.053,0.005 -14.105,0.004 -21.159,0.003c-1.445,0 -2.361,-0.91 -2.362,-2.351c0,-4.884 0,-9.767 0.001,-14.65c0,-1.457 0.916,-2.372 2.375,-2.373c3.675,0.001 7.35,0.001 11.026,0.001zm-0.056,7.607c3.189,-2.35 6.353,-4.679 9.573,-7.052c-6.396,0 -12.696,0 -19.084,0c3.209,2.379 6.352,4.711 9.511,7.052zm-0.466,4.877c-3.025,2.104 -6.037,4.198 -9.098,6.326c6.402,0 12.736,0 19.133,0c-0.95,-0.66 -1.843,-1.281 -2.737,-1.903c-2.049,-1.425 -4.097,-2.85 -6.15,-4.271c-0.089,-0.062 -0.256,-0.117 -0.329,-0.076c-0.299,0.17 -0.563,0.162 -0.819,-0.076zm1.408,-0.327c2.971,2.066 5.913,4.111 8.883,6.176c0,-4.124 0,-8.181 0,-12.292c-2.973,2.047 -5.911,4.07 -8.883,6.116zm-1.88,0c-2.974,-2.047 -5.911,-4.07 -8.872,-6.109c0,4.111 0,8.176 0,12.28c2.966,-2.064 5.897,-4.101 8.872,-6.171z" clip-rule="evenodd"/>
 </g>
</svg>