<?xml version="1.0" encoding="UTF-8"?>
<svg xmlns="http://www.w3.org/2000/svg" xmlns:xlink="http://www.w3.org/1999/xlink" width="75pt" height="75pt" viewBox="0 0 75 75" version="1.1">
<g id="surface12065">
<path style=" stroke:none;fill-rule:nonzero;fill:rgb(83.529413%,87.058824%,100%);fill-opacity:1;" d="M 37.5 4.5 C 23.265625 4.5 15.421875 4.5 9.945312 9.960938 C 4.5 15.40625 4.5 23.265625 4.5 37.5 C 4.5 51.75 4.5 59.609375 9.945312 65.070312 C 15.421875 70.5 23.265625 70.5 37.5 70.5 C 51.734375 70.5 59.578125 70.5 65.054688 65.039062 C 70.5 59.59375 70.5 51.734375 70.5 37.5 C 70.5 23.25 70.5 15.390625 65.054688 9.929688 C 59.578125 4.5 51.734375 4.5 37.5 4.5 Z M 37.5 13.5 C 43.636719 13.5 49.769531 15.839844 54.449219 20.535156 C 63.8125 29.894531 63.8125 45.089844 54.449219 54.464844 C 49.769531 59.160156 43.621094 61.5 37.484375 61.5 C 31.351562 61.5 25.214844 59.160156 20.535156 54.464844 C 11.1875 45.105469 11.1875 29.910156 20.535156 20.535156 C 25.230469 15.839844 31.363281 13.5 37.5 13.5 Z M 25.980469 24 C 24.136719 24.105469 22.515625 25.109375 21.644531 26.714844 C 20.757812 28.320312 20.789062 30.269531 21.722656 31.890625 C 22.605469 33.417969 23.492188 34.949219 24.359375 36.480469 L 27.074219 41.191406 C 29.042969 44.597656 30.992188 48 32.972656 51.390625 C 33.976562 53.085938 35.550781 54 37.472656 54 C 37.621094 54 37.753906 54 37.902344 53.984375 C 39.71875 53.851562 41.191406 52.890625 42.136719 51.226562 L 53.25 31.933594 C 53.894531 30.839844 54.121094 29.671875 53.941406 28.5 C 53.761719 27.105469 52.980469 25.816406 51.777344 24.976562 C 50.578125 24.136719 49.109375 23.835938 47.730469 24.136719 C 46.082031 24.496094 44.742188 25.542969 44.054688 27.015625 C 43.347656 28.46875 43.378906 30.179688 44.175781 31.738281 C 44.5625 32.503906 45 33.390625 45 34.5 C 45 36.871094 42.058594 37.5 40.5 37.5 C 37.246094 37.5 36.058594 35.714844 33.855469 31.980469 L 32.355469 29.386719 C 31.859375 28.53125 31.394531 27.71875 30.777344 26.667969 C 29.714844 24.839844 28.019531 23.878906 25.980469 24 Z M 25.980469 24 "/>
</g>
</svg>
