<?xml version="1.0" encoding="UTF-8"?>
<svg xmlns="http://www.w3.org/2000/svg" xmlns:xlink="http://www.w3.org/1999/xlink" width="75pt" height="75pt" viewBox="0 0 75 75" version="1.1">
<g id="surface13397">
<path style=" stroke:none;fill-rule:nonzero;fill:rgb(83.529413%,87.058824%,100%);fill-opacity:1;" d="M 37.5 3 C 18.476562 3 3 18.476562 3 37.5 C 3 56.523438 18.476562 72 37.5 72 C 56.523438 72 72 56.523438 72 37.5 C 72 18.476562 56.523438 3 37.5 3 Z M 12.066406 18.996094 L 22.570312 36.113281 C 23.273438 28.492188 29.695312 22.5 37.5 22.5 L 65.195312 22.5 C 65.722656 23.46875 66.1875 24.472656 66.613281 25.5 L 46.460938 25.5 C 50.117188 28.238281 52.5 32.589844 52.5 37.5 C 52.5 40.179688 51.785156 42.695312 50.546875 44.875 C 50.535156 44.894531 50.539062 44.917969 50.527344 44.9375 L 36.804688 68.964844 C 35.683594 68.9375 34.582031 68.855469 33.492188 68.714844 L 43.464844 51.257812 C 41.636719 52.054688 39.621094 52.5 37.5 52.5 C 32.160156 52.5 27.476562 49.6875 24.820312 45.472656 C 24.785156 45.429688 24.746094 45.398438 24.714844 45.347656 L 10.246094 21.773438 C 10.804688 20.8125 11.410156 19.886719 12.066406 18.996094 Z M 37.5 25.5 C 30.871094 25.5 25.5 30.871094 25.5 37.5 C 25.5 44.128906 30.871094 49.5 37.5 49.5 C 44.128906 49.5 49.5 44.128906 49.5 37.5 C 49.5 30.871094 44.128906 25.5 37.5 25.5 Z M 37.5 25.5 "/>
</g>
</svg>
