<?xml version="1.0" encoding="UTF-8"?>
<svg xmlns="http://www.w3.org/2000/svg" xmlns:xlink="http://www.w3.org/1999/xlink" width="75pt" height="75pt" viewBox="0 0 75 75" version="1.1">
<g id="surface5538">
<path style=" stroke:none;fill-rule:nonzero;fill:rgb(83.529413%,87.058824%,100%);fill-opacity:1;" d="M 37.359375 0 C 17.488281 0 3 15.136719 3 37.171875 C 3 56.917969 16.96875 75 37.359375 75 C 57.933594 75 72 56.925781 72 37.171875 C 72 14.949219 57.050781 0 37.359375 0 Z M 37.359375 3 C 55.566406 3 69 16.261719 69 37.171875 C 69 55.519531 56.175781 72 37.359375 72 C 18.746094 72 6 55.511719 6 37.171875 C 6 16.417969 18.984375 3 37.359375 3 Z M 37.359375 7.546875 C 34.410156 7.546875 31.945312 8.675781 30.09375 10.546875 C 28.242188 12.417969 26.972656 14.941406 26.0625 17.765625 C 24.253906 23.410156 23.8125 30.402344 23.8125 36.609375 C 23.8125 42.324219 24.035156 49.519531 25.734375 55.5 C 26.582031 58.488281 27.832031 61.195312 29.71875 63.234375 C 31.605469 65.273438 34.195312 66.5625 37.359375 66.5625 C 37.472656 66.558594 37.582031 66.542969 37.6875 66.515625 C 37.800781 66.496094 37.910156 66.464844 38.015625 66.421875 C 40.894531 66.246094 43.363281 65.15625 45.140625 63.28125 C 47.0625 61.253906 48.300781 58.535156 49.171875 55.546875 C 50.917969 49.574219 51.1875 42.378906 51.1875 36.609375 C 51.1875 29.941406 50.683594 22.933594 48.796875 17.390625 C 47.855469 14.621094 46.550781 12.191406 44.671875 10.40625 C 42.792969 8.621094 40.289062 7.546875 37.359375 7.546875 Z M 37.359375 10.546875 C 39.589844 10.546875 41.222656 11.246094 42.609375 12.5625 C 43.996094 13.878906 45.140625 15.855469 45.984375 18.328125 C 47.667969 23.273438 48.1875 30.09375 48.1875 36.609375 C 48.1875 42.292969 47.894531 49.300781 46.3125 54.703125 C 45.519531 57.402344 44.425781 59.695312 42.984375 61.21875 C 41.542969 62.742188 39.800781 63.5625 37.359375 63.5625 C 37.308594 63.5625 37.269531 63.5625 37.21875 63.5625 C 34.910156 63.527344 33.304688 62.714844 31.921875 61.21875 C 30.511719 59.691406 29.410156 57.371094 28.640625 54.65625 C 27.097656 49.238281 26.8125 42.238281 26.8125 36.609375 C 26.8125 30.542969 27.292969 23.722656 28.921875 18.65625 C 29.738281 16.121094 30.832031 14.039062 32.203125 12.65625 C 33.574219 11.273438 35.152344 10.546875 37.359375 10.546875 Z M 37.359375 10.546875 "/>
</g>
</svg>
