<?xml version="1.0" encoding="UTF-8"?>
<svg xmlns="http://www.w3.org/2000/svg" xmlns:xlink="http://www.w3.org/1999/xlink" width="75pt" height="75pt" viewBox="0 0 75 75" version="1.1">
<g id="surface11444">
<path style=" stroke:none;fill-rule:nonzero;fill:rgb(83.529413%,87.058824%,100%);fill-opacity:1;" d="M 37.5 2.878906 C 18.398438 2.878906 2.878906 18.398438 2.878906 37.5 C 2.878906 56.601562 18.398438 72.121094 37.5 72.121094 C 56.601562 72.121094 72.121094 56.601562 72.121094 37.5 C 72.121094 18.398438 56.601562 2.878906 37.5 2.878906 Z M 37.5 5.878906 C 54.980469 5.878906 69.121094 20.019531 69.121094 37.5 C 69.121094 54.980469 54.980469 69.121094 37.5 69.121094 C 20.019531 69.121094 5.878906 54.980469 5.878906 37.5 C 5.878906 36.953125 5.894531 36.410156 5.921875 35.871094 C 6.765625 19.148438 20.566406 5.878906 37.5 5.878906 Z M 37.5 9 C 21.785156 9 9 21.785156 9 37.5 C 9 53.214844 21.785156 66 37.5 66 C 53.214844 66 66 53.214844 66 37.5 C 66 21.785156 53.214844 9 37.5 9 Z M 37.5 13.5 C 38.328125 13.5 39 14.171875 39 15 L 39 16.5 C 39 17.328125 38.328125 18 37.5 18 C 36.671875 18 36 17.328125 36 16.5 L 36 15 C 36 14.171875 36.671875 13.5 37.5 13.5 Z M 46.105469 15.214844 C 46.300781 15.210938 46.496094 15.25 46.6875 15.328125 C 47.453125 15.644531 47.816406 16.523438 47.5 17.289062 L 46.925781 18.675781 C 46.6875 19.25 46.128906 19.597656 45.539062 19.597656 C 45.347656 19.597656 45.152344 19.5625 44.964844 19.484375 C 44.199219 19.167969 43.835938 18.289062 44.152344 17.527344 L 44.726562 16.140625 C 44.964844 15.566406 45.519531 15.21875 46.105469 15.214844 Z M 28.878906 15.21875 C 29.464844 15.222656 30.019531 15.570312 30.257812 16.144531 L 30.835938 17.527344 C 31.15625 18.292969 30.792969 19.171875 30.027344 19.488281 C 29.839844 19.566406 29.640625 19.605469 29.449219 19.605469 C 28.859375 19.605469 28.304688 19.257812 28.066406 18.679688 L 27.488281 17.296875 C 27.167969 16.53125 27.53125 15.65625 28.296875 15.335938 C 28.488281 15.257812 28.6875 15.21875 28.878906 15.21875 Z M 55.5 19.5 L 42 42 L 19.5 55.5 L 33 33 Z M 21.574219 20.105469 C 21.957031 20.105469 22.34375 20.25 22.636719 20.539062 L 23.699219 21.601562 C 24.285156 22.1875 24.285156 23.136719 23.699219 23.722656 C 23.410156 24.015625 23.023438 24.164062 22.636719 24.164062 C 22.253906 24.164062 21.871094 24.015625 21.578125 23.722656 L 20.515625 22.664062 C 19.929688 22.078125 19.929688 21.132812 20.511719 20.542969 C 20.808594 20.25 21.191406 20.105469 21.574219 20.105469 Z M 58.269531 27.328125 C 58.851562 27.332031 59.410156 27.675781 59.648438 28.25 C 59.96875 29.015625 59.609375 29.894531 58.84375 30.214844 L 57.457031 30.792969 C 57.269531 30.875 57.074219 30.910156 56.878906 30.910156 C 56.292969 30.910156 55.734375 30.5625 55.496094 29.988281 C 55.175781 29.222656 55.535156 28.34375 56.300781 28.027344 L 57.683594 27.445312 C 57.875 27.367188 58.074219 27.328125 58.269531 27.328125 Z M 16.707031 27.394531 C 16.898438 27.390625 17.097656 27.429688 17.289062 27.507812 L 18.675781 28.082031 C 19.4375 28.398438 19.800781 29.277344 19.484375 30.042969 C 19.246094 30.617188 18.6875 30.964844 18.097656 30.964844 C 17.90625 30.964844 17.714844 30.929688 17.527344 30.851562 L 16.140625 30.277344 C 15.375 29.960938 15.011719 29.082031 15.328125 28.316406 C 15.566406 27.742188 16.121094 27.398438 16.707031 27.394531 Z M 37.5 34.5 C 35.957031 34.5 34.667969 35.667969 34.515625 37.199219 C 34.503906 37.300781 34.5 37.398438 34.5 37.5 C 34.5 39.15625 35.84375 40.5 37.5 40.5 C 39.15625 40.5 40.5 39.15625 40.5 37.5 C 40.5 35.84375 39.15625 34.5 37.5 34.5 Z M 15 36 L 16.5 36 C 17.328125 36 18 36.671875 18 37.5 C 18 38.328125 17.328125 39 16.5 39 L 15 39 C 14.171875 39 13.5 38.328125 13.5 37.5 C 13.5 36.671875 14.171875 36 15 36 Z M 58.5 36 L 60 36 C 60.828125 36 61.5 36.671875 61.5 37.5 C 61.5 38.328125 60.828125 39 60 39 L 58.5 39 C 57.671875 39 57 38.328125 57 37.5 C 57 36.671875 57.671875 36 58.5 36 Z M 56.890625 44.035156 C 57.085938 44.03125 57.285156 44.070312 57.472656 44.148438 L 58.859375 44.722656 C 59.625 45.039062 59.988281 45.917969 59.671875 46.683594 C 59.433594 47.257812 58.875 47.605469 58.285156 47.605469 C 58.09375 47.605469 57.898438 47.570312 57.710938 47.492188 L 56.324219 46.917969 C 55.5625 46.601562 55.199219 45.722656 55.515625 44.957031 C 55.753906 44.382812 56.308594 44.039062 56.890625 44.035156 Z M 18.125 44.089844 C 18.710938 44.09375 19.265625 44.4375 19.503906 45.011719 C 19.824219 45.777344 19.464844 46.65625 18.699219 46.972656 L 17.316406 47.554688 C 17.128906 47.632812 16.929688 47.667969 16.738281 47.667969 C 16.152344 47.667969 15.589844 47.324219 15.351562 46.75 C 15.03125 45.984375 15.390625 45.105469 16.15625 44.785156 L 17.542969 44.207031 C 17.734375 44.125 17.929688 44.089844 18.125 44.089844 Z M 52.363281 50.835938 C 52.746094 50.835938 53.128906 50.984375 53.421875 51.277344 L 54.484375 52.335938 C 55.070312 52.921875 55.070312 53.867188 54.488281 54.457031 C 54.195312 54.75 53.808594 54.894531 53.421875 54.894531 C 53.039062 54.894531 52.65625 54.75 52.363281 54.460938 L 51.300781 53.398438 C 50.714844 52.8125 50.714844 51.863281 51.300781 51.277344 C 51.59375 50.980469 51.976562 50.835938 52.363281 50.835938 Z M 45.558594 55.394531 C 46.144531 55.398438 46.695312 55.746094 46.933594 56.320312 L 47.511719 57.703125 C 47.832031 58.46875 47.46875 59.34375 46.703125 59.664062 C 46.515625 59.742188 46.320312 59.78125 46.128906 59.78125 C 45.539062 59.78125 44.980469 59.433594 44.742188 58.855469 L 44.164062 57.472656 C 43.84375 56.707031 44.207031 55.828125 44.972656 55.511719 C 45.164062 55.433594 45.363281 55.394531 45.558594 55.394531 Z M 29.453125 55.402344 C 29.648438 55.398438 29.84375 55.4375 30.035156 55.515625 C 30.800781 55.832031 31.164062 56.710938 30.847656 57.472656 L 30.273438 58.859375 C 30.035156 59.4375 29.476562 59.785156 28.886719 59.785156 C 28.695312 59.785156 28.5 59.75 28.3125 59.671875 C 27.546875 59.355469 27.183594 58.476562 27.5 57.710938 L 28.074219 56.324219 C 28.3125 55.753906 28.867188 55.40625 29.453125 55.402344 Z M 37.5 57 C 38.328125 57 39 57.671875 39 58.5 L 39 60 C 39 60.828125 38.328125 61.5 37.5 61.5 C 36.671875 61.5 36 60.828125 36 60 L 36 58.5 C 36 57.671875 36.671875 57 37.5 57 Z M 37.5 57 "/>
</g>
</svg>
