<?xml version="1.0" encoding="UTF-8"?>
<svg xmlns="http://www.w3.org/2000/svg" xmlns:xlink="http://www.w3.org/1999/xlink" width="75pt" height="75pt" viewBox="0 0 75 75" version="1.1">
<g id="surface6453">
<path style=" stroke:none;fill-rule:nonzero;fill:rgb(83.529413%,87.058824%,100%);fill-opacity:1;" d="M 37.949219 4.503906 C 23.160156 4.503906 10.558594 13.769531 5.996094 27.976562 C 5.34375 29.996094 4.917969 32.003906 4.691406 33.988281 C 4.683594 34 4.679688 34.011719 4.675781 34.023438 L 4.683594 34.027344 C 3.089844 48.070312 11.507812 60.742188 21.664062 66.40625 C 23.433594 67.394531 29.566406 70.433594 37.9375 70.480469 C 38 70.492188 38.066406 70.5 38.132812 70.5 C 45.445312 70.5 55.945312 68.160156 64.886719 56.597656 C 64.894531 56.582031 64.90625 56.570312 64.914062 56.558594 C 64.960938 56.492188 65.011719 56.425781 65.058594 56.359375 C 65.4375 55.808594 65.40625 55.070312 64.980469 54.554688 C 64.554688 54.035156 63.835938 53.863281 63.222656 54.132812 C 62.976562 54.238281 62.730469 54.351562 62.496094 54.457031 C 62.496094 54.457031 62.492188 54.457031 62.492188 54.460938 C 61.957031 54.703125 61.417969 54.84375 60.339844 55.285156 C 60.339844 55.285156 60.335938 55.285156 60.335938 55.285156 C 58.535156 56.027344 55.578125 56.53125 52.449219 56.53125 C 49.828125 56.53125 47.257812 56.1875 45.324219 55.605469 C 42.335938 54.707031 33.933594 52.230469 29.417969 42.265625 C 28.3125 39.835938 27.875 35.871094 30.136719 32.324219 C 31.578125 30.0625 34.527344 28.484375 37.511719 28.484375 C 39.339844 28.484375 41.113281 29.046875 42.664062 30.125 C 45.054688 31.789062 45.980469 33.671875 46.34375 35.441406 C 46.707031 37.214844 46.4375 38.890625 46.199219 39.816406 C 45.726562 41.648438 45.136719 42.335938 44.832031 42.71875 C 44.828125 42.722656 44.820312 42.730469 44.816406 42.738281 C 44.816406 42.738281 44.753906 42.8125 44.652344 42.945312 C 44.195312 43.5625 44.273438 44.425781 44.839844 44.949219 C 44.992188 45.089844 45.152344 45.207031 45.351562 45.332031 L 45.742188 45.574219 C 47.847656 46.890625 51.847656 48 55.84375 48 C 58.898438 48 62.859375 47.398438 66.386719 43.867188 C 69.472656 40.777344 70.425781 36.980469 70.480469 33.777344 C 70.53125 30.570312 69.738281 27.894531 69.300781 26.648438 C 67.800781 22.375 61.566406 8.40625 44.355469 5.113281 C 42.25 4.707031 40.097656 4.507812 37.949219 4.503906 Z M 37.949219 7.503906 C 39.90625 7.503906 41.875 7.691406 43.792969 8.058594 C 59.597656 11.082031 65.144531 23.867188 66.472656 27.640625 C 66.832031 28.671875 67.523438 31.054688 67.480469 33.726562 C 67.433594 36.398438 66.710938 39.296875 64.265625 41.746094 C 61.378906 44.636719 58.5625 45 55.84375 45 C 52.746094 45 49.234375 43.917969 47.835938 43.214844 C 48.273438 42.53125 48.714844 42.085938 49.105469 40.566406 C 49.417969 39.34375 49.777344 37.242188 49.285156 34.839844 C 49.140625 34.144531 48.910156 33.425781 48.597656 32.703125 L 48.605469 32.699219 C 46.152344 25.546875 38.03125 19.507812 29.027344 18.273438 C 22.683594 17.402344 15.839844 19.175781 10.484375 24.8125 C 15.558594 14.140625 25.878906 7.503906 37.949219 7.503906 Z M 25.644531 21.042969 C 26.636719 21.039062 27.628906 21.109375 28.617188 21.242188 C 32.488281 21.773438 36.214844 23.421875 39.238281 25.621094 C 38.671875 25.535156 38.09375 25.484375 37.511719 25.484375 C 34.878906 25.484375 32.332031 26.355469 30.300781 27.863281 L 30.296875 27.863281 C 30.191406 27.9375 30.105469 28.019531 30.003906 28.097656 C 29.804688 28.257812 29.597656 28.410156 29.410156 28.582031 C 19.445312 36.640625 17.769531 47.34375 21.167969 55.761719 C 22.894531 60.03125 25.878906 63.75 29.632812 66.335938 C 26.335938 65.4375 23.996094 64.273438 23.128906 63.789062 C 14.101562 58.753906 6.414062 47.339844 7.652344 34.714844 C 11.972656 24.613281 18.792969 21.0625 25.644531 21.042969 Z M 25.539062 37.214844 C 25.417969 39.574219 25.90625 41.785156 26.6875 43.503906 C 31.714844 54.59375 41.472656 57.578125 44.457031 58.476562 C 46.769531 59.171875 49.570312 59.53125 52.449219 59.53125 C 54.648438 59.53125 56.660156 59.253906 58.519531 58.851562 C 53.144531 64.003906 47.632812 66.265625 42.832031 67.09375 C 34.492188 67.679688 26.984375 62.148438 23.953125 54.636719 C 21.800781 49.300781 21.84375 43.054688 25.539062 37.214844 Z M 25.539062 37.214844 "/>
</g>
</svg>
